<svg width="166" height="40" viewBox="0 0 166 40" fill="none" xmlns="http://www.w3.org/2000/svg">
<path d="M66.518 33H60.081L54.505 23.652L48.929 33H42.533L51.307 18.281L42.984 4.3H49.38L54.505 12.91L59.63 4.3H66.026L57.703 18.24L66.518 33ZM78.2072 33.574C75.3645 33.574 72.9728 32.9453 71.0322 31.688C69.0915 30.4033 67.7248 28.6677 66.9322 26.481L71.7702 23.652C72.8908 26.5767 75.0912 28.039 78.3712 28.039C79.9565 28.039 81.1182 27.752 81.8562 27.178C82.5942 26.604 82.9632 25.8797 82.9632 25.005C82.9632 23.9937 82.5122 23.2147 81.6102 22.668C80.7082 22.094 79.0955 21.479 76.7722 20.823C75.4875 20.4403 74.3942 20.0577 73.4922 19.675C72.6175 19.2923 71.7292 18.7867 70.8272 18.158C69.9525 17.502 69.2828 16.682 68.8182 15.698C68.3535 14.714 68.1212 13.566 68.1212 12.254C68.1212 9.65733 69.0368 7.59367 70.8682 6.063C72.7268 4.505 74.9545 3.726 77.5512 3.726C79.8745 3.726 81.9108 4.3 83.6602 5.448C85.4368 6.56866 86.8172 8.14033 87.8012 10.163L83.0452 12.91C81.8972 10.45 80.0658 9.22 77.5512 9.22C76.3758 9.22 75.4465 9.49333 74.7632 10.04C74.1072 10.5593 73.7792 11.2427 73.7792 12.09C73.7792 12.992 74.1482 13.73 74.8862 14.304C75.6515 14.8507 77.1002 15.452 79.2322 16.108C80.1068 16.3813 80.7628 16.6 81.2002 16.764C81.6648 16.9007 82.2798 17.133 83.0452 17.461C83.8378 17.7617 84.4392 18.0487 84.8492 18.322C85.2865 18.5953 85.7785 18.9643 86.3252 19.429C86.8718 19.8937 87.2818 20.372 87.5552 20.864C87.8558 21.356 88.1018 21.9573 88.2932 22.668C88.5118 23.3513 88.6212 24.103 88.6212 24.923C88.6212 27.5743 87.6508 29.679 85.7102 31.237C83.7968 32.795 81.2958 33.574 78.2072 33.574ZM103.191 17.584H98.5579V26.112C98.5579 26.8227 98.7356 27.342 99.0909 27.67C99.4462 27.998 99.9656 28.1893 100.649 28.244C101.332 28.2713 102.18 28.2577 103.191 28.203V33C99.5556 33.41 96.9862 33.0683 95.4829 31.975C94.0069 30.8817 93.2689 28.9273 93.2689 26.112V17.584H89.7019V12.5H93.2689V8.359L98.5579 6.76V12.5H103.191V17.584ZM123.745 30.458C121.641 32.5353 119.071 33.574 116.037 33.574C113.003 33.574 110.434 32.5353 108.329 30.458C106.252 28.3533 105.213 25.784 105.213 22.75C105.213 19.716 106.252 17.1603 108.329 15.083C110.434 12.9783 113.003 11.926 116.037 11.926C119.071 11.926 121.641 12.9783 123.745 15.083C125.85 17.1603 126.902 19.716 126.902 22.75C126.902 25.784 125.85 28.3533 123.745 30.458ZM112.06 26.809C113.126 27.875 114.452 28.408 116.037 28.408C117.623 28.408 118.948 27.875 120.014 26.809C121.08 25.743 121.613 24.39 121.613 22.75C121.613 21.11 121.08 19.757 120.014 18.691C118.948 17.625 117.623 17.092 116.037 17.092C114.452 17.092 113.126 17.625 112.06 18.691C111.022 19.757 110.502 21.11 110.502 22.75C110.502 24.39 111.022 25.743 112.06 26.809ZM135.912 16.026C136.404 14.714 137.21 13.73 138.331 13.074C139.479 12.418 140.75 12.09 142.144 12.09V17.994C140.531 17.8027 139.083 18.1307 137.798 18.978C136.541 19.8253 135.912 21.233 135.912 23.201V33H130.623V12.5H135.912V16.026ZM148.946 24.923C149.656 27.4923 151.583 28.777 154.727 28.777C156.749 28.777 158.28 28.0937 159.319 26.727L163.583 29.187C161.56 32.1117 158.581 33.574 154.645 33.574C151.255 33.574 148.536 32.549 146.486 30.499C144.436 28.449 143.411 25.866 143.411 22.75C143.411 19.6613 144.422 17.092 146.445 15.042C148.467 12.9647 151.064 11.926 154.235 11.926C157.241 11.926 159.715 12.9647 161.656 15.042C163.624 17.1193 164.608 19.6887 164.608 22.75C164.608 23.4333 164.539 24.1577 164.403 24.923H148.946ZM148.864 20.823H159.319C159.018 19.429 158.389 18.3903 157.433 17.707C156.503 17.0237 155.437 16.682 154.235 16.682C152.813 16.682 151.638 17.051 150.709 17.789C149.779 18.4997 149.164 19.511 148.864 20.823Z" fill="white"/>
<path d="M22.142 6.8874C21.3387 8.82805 19.5714 10.0838 19.5714 12.1217C19.5714 14.7557 22.5352 16.0833 22.5352 19.2881H22.5225C22.5902 20.6368 22.1124 22.0067 21.085 23.0341C19.1486 24.9705 16.0156 24.9705 14.0792 23.0341C13.0518 22.0025 12.5741 20.6368 12.6417 19.2881H12.629C12.629 16.0833 15.5928 14.7557 15.5928 12.1217C15.5928 10.0838 13.8255 8.83228 13.0222 6.8874C13.0222 6.88317 13.018 6.87895 13.018 6.87472C12.963 6.74365 12.9165 6.61258 12.87 6.47306C12.8616 6.44346 12.8489 6.41387 12.8404 6.38427C12.8024 6.2532 12.7685 6.12213 12.7389 5.98684C12.7347 5.96147 12.7305 5.9361 12.722 5.91073C12.6924 5.77121 12.6713 5.62746 12.6544 5.47948C12.6544 5.45834 12.6502 5.44143 12.6502 5.42029C12.6375 5.26808 12.6248 5.11164 12.6248 4.95098C12.6248 2.2197 14.8445 0 17.58 0C20.3155 0 22.5352 2.2197 22.5352 4.95521C22.5352 5.11587 22.5268 5.27231 22.5098 5.42452C22.5098 5.44566 22.5056 5.46257 22.5056 5.48371C22.4887 5.63169 22.4676 5.77544 22.438 5.91496C22.4337 5.94033 22.4295 5.9657 22.4211 5.99107C22.3915 6.12636 22.3576 6.26166 22.3196 6.3885C22.3111 6.41809 22.3027 6.44769 22.29 6.47729C22.2477 6.61258 22.197 6.74788 22.142 6.87895C22.1462 6.87895 22.142 6.88317 22.142 6.8874ZM30.2048 17.3179C32.9403 17.3179 35.16 15.0982 35.16 12.3627C35.16 9.62714 32.9403 7.40744 30.2048 7.40744C27.4693 7.40744 25.2496 9.62714 25.2496 12.3627C25.2538 15.1024 27.4693 17.3179 30.2048 17.3179ZM30.2048 21.863C27.4693 21.863 25.2496 24.0827 25.2496 26.8182C25.2496 29.5537 27.4693 31.7734 30.2048 31.7734C32.9403 31.7734 35.16 29.5537 35.16 26.8182C35.16 24.0784 32.9403 21.863 30.2048 21.863ZM19.9519 29.7608C17.1741 28.1584 14.5443 30.061 12.2612 28.7461C10.6376 27.8117 10.3374 25.9091 9.30581 24.311C8.43908 22.6198 6.94659 21.4063 6.94659 19.5333C6.94659 17.4954 8.7139 16.2439 9.51721 14.2991C9.51721 14.2948 9.52144 14.2906 9.52144 14.2864C9.57641 14.1553 9.62292 14.0243 9.66942 13.8847C9.67788 13.8551 9.69056 13.8255 9.69902 13.7959C9.73707 13.6649 9.77089 13.5338 9.80049 13.3985C9.80472 13.3731 9.80895 13.3478 9.8174 13.3224C9.847 13.1829 9.86814 13.0391 9.88505 12.8912C9.88505 12.87 9.88928 12.8531 9.88928 12.832C9.90196 12.6798 9.91465 12.5233 9.91465 12.3627C9.91465 9.62714 7.69495 7.40744 4.95944 7.40744C2.2197 7.41167 0 9.63137 0 12.3669C0 12.5275 0.00845599 12.684 0.025368 12.8362C0.025368 12.8573 0.029596 12.8742 0.029596 12.8954C0.0465079 13.0434 0.0676479 13.1871 0.0972439 13.3266C0.101472 13.352 0.1057 13.3774 0.114156 13.4027C0.143752 13.538 0.177576 13.6733 0.215628 13.8002C0.224084 13.8298 0.23254 13.8594 0.245224 13.889C0.287504 14.0243 0.33824 14.1595 0.393203 14.2906C0.393203 14.2948 0.397431 14.2991 0.397431 14.3033C1.20075 16.244 2.96805 17.4997 2.96805 19.5376C2.96382 22.1674 0 23.495 0 26.6998H0.00422799C0.00422799 26.7378 0 26.7759 0 26.8139C0 28.6912 1.04431 30.3274 2.58753 31.1645L2.5833 31.173C5.35687 32.7754 7.99091 30.8728 10.274 32.1877C12.5571 33.5068 12.2231 36.737 15.0009 38.3394L15.0052 38.3352C15.7577 38.7961 16.6372 39.0667 17.5842 39.0667C20.3197 39.0667 22.5394 36.847 22.5394 34.1115C22.5352 32.2342 21.4909 30.6022 19.9519 29.7608Z" fill="white"/>
</svg>
