<svg xmlns="http://www.w3.org/2000/svg" width="258" height="36" viewBox="0 0 258 36" fill="none"><path d="M5.64571 0H54.3539C55.9075 0 57.3193 0.635041 58.342 1.6578C59.365 2.68074 60 4.09248 60 5.64589V30.1754C60 31.7286 59.3648 33.1404 58.342 34.1633C57.3191 35.1861 55.9073 35.8213 54.3541 35.8213H5.64589C4.09266 35.8213 2.68074 35.1863 1.6578 34.1633C0.635041 33.1406 0 31.729 0 30.1754V5.64589C0 4.0923 0.635041 2.68056 1.6578 1.6578C2.68056 0.635041 4.09248 0 5.64607 0H5.64571ZM54.3539 1.94598H5.64571C4.62924 1.94598 3.7044 2.36268 3.03336 3.03372C2.36232 3.70476 1.94562 4.6296 1.94562 5.64607V30.1756C1.94562 31.1919 2.36232 32.1167 3.03336 32.7878C3.70458 33.459 4.62942 33.8757 5.64571 33.8757H54.3539C55.37 33.8757 56.2949 33.459 56.9661 32.7878C57.6371 32.1165 58.054 31.1917 58.054 30.1758V5.64625C58.054 4.63014 57.6373 3.70512 56.9663 3.0339C56.2952 2.36286 55.3702 1.94616 54.3539 1.94616V1.94598Z" fill="white" fill-opacity="0.12"></path><path fill-rule="evenodd" clip-rule="evenodd" d="M24.5928 23.3603L26.4457 12.488H29.409L27.555 23.3603H24.5928ZM38.3032 12.756C37.716 12.5353 36.7961 12.2993 35.6471 12.2993C32.7191 12.299 30.6561 13.7739 30.6388 15.8873C30.6222 17.4489 32.1114 18.3209 33.2355 18.8411C34.3889 19.3735 34.7768 19.7137 34.7712 20.1896C34.7639 20.9181 33.85 21.2513 32.9982 21.2513C31.8122 21.2513 31.182 21.0866 30.2088 20.6807L29.8268 20.5075L29.4108 22.9415C30.1031 23.2451 31.3829 23.5081 32.7119 23.5218C35.8269 23.5216 37.8492 22.0641 37.8723 19.8073C37.8834 18.5703 37.094 17.6293 35.3843 16.8533C34.3484 16.35 33.7139 16.0149 33.7208 15.5055C33.7208 15.0535 34.2577 14.5704 35.4178 14.5704C36.3871 14.5551 37.0887 14.7666 37.6358 14.9869L37.9014 15.1122L38.303 12.7562L38.3032 12.756ZM45.9025 12.4982H43.6125C42.9031 12.4982 42.3721 12.6923 42.0605 13.4002L37.6595 23.3636H40.7714C40.7714 23.3636 41.2802 22.0242 41.3954 21.7301C41.7356 21.7301 44.7586 21.7347 45.1907 21.7347C45.2795 22.1153 45.5513 23.3637 45.5513 23.3637L48.3013 23.3636L45.9026 12.4982H45.9025ZM42.2481 19.5062C42.4932 18.8798 43.4287 16.4672 43.4287 16.4672C43.4114 16.496 43.6719 15.8378 43.8217 15.4295L44.0222 16.3666C44.0222 16.3666 44.5894 18.9622 44.708 19.5063L42.2479 19.5062H42.2481ZM22.1073 12.4959L19.2061 19.9101L18.8968 18.4035C18.3568 16.6665 16.6738 14.7849 14.7925 13.8428L17.4455 23.351L20.5809 23.3472L25.2464 12.4959H22.1073Z" fill="white"></path><path fill-rule="evenodd" clip-rule="evenodd" d="M16.5147 12.4893H11.736L11.6982 12.7155C15.416 13.6152 17.8758 15.7903 18.897 18.4033L17.8578 13.4073C17.6786 12.7188 17.1582 12.5134 16.5147 12.4893Z" fill="#F79F06"></path><g clip-path="url(#clip0_1_1683)"><path fill-rule="evenodd" clip-rule="evenodd" d="M74.0517 23.5663H74.3858L74.073 24.865C74.0253 25.056 74.0359 25.2043 74.0994 25.2997C74.1632 25.3951 74.2796 25.4428 74.4546 25.4428C74.6241 25.4428 74.7672 25.3951 74.8787 25.2997C74.9899 25.2041 75.0642 25.0558 75.1119 24.865L75.4246 23.5663H75.7639L75.4458 24.8968C75.3769 25.183 75.255 25.4005 75.0749 25.5436C74.8999 25.6867 74.6666 25.761 74.3804 25.761C74.0942 25.761 73.898 25.6921 73.792 25.5488C73.686 25.4057 73.6647 25.1884 73.7337 24.9022L74.0517 23.5665V23.5663ZM114.283 25.7025L114.792 23.5663H115.952L115.883 23.8631H115.062L114.935 24.3984H115.756L115.682 24.7006H114.861L114.696 25.3895H115.518L115.444 25.7023H114.283V25.7025ZM114.251 24.0858C114.177 24.0012 114.087 23.9374 113.991 23.9002C113.896 23.8579 113.79 23.8366 113.668 23.8366C113.44 23.8366 113.239 23.9108 113.058 24.0593C112.878 24.2078 112.762 24.404 112.703 24.6423C112.65 24.8704 112.671 25.0612 112.778 25.2149C112.878 25.3632 113.037 25.4376 113.249 25.4376C113.371 25.4376 113.493 25.4163 113.615 25.3686C113.737 25.3263 113.859 25.2572 113.986 25.1672L113.891 25.5594C113.785 25.6282 113.673 25.6761 113.556 25.7079C113.44 25.7396 113.323 25.7556 113.196 25.7556C113.037 25.7556 112.894 25.729 112.772 25.6759C112.65 25.623 112.55 25.5434 112.47 25.4376C112.39 25.3368 112.343 25.2149 112.321 25.0772C112.3 24.9393 112.306 24.791 112.348 24.6319C112.385 24.4729 112.449 24.3295 112.534 24.1918C112.618 24.0539 112.73 23.932 112.857 23.8314C112.984 23.7254 113.122 23.646 113.27 23.5929C113.419 23.54 113.567 23.5135 113.721 23.5135C113.843 23.5135 113.954 23.5294 114.06 23.5665C114.161 23.6037 114.256 23.6565 114.341 23.7308L114.251 24.0858ZM110.954 24.8598H111.532L111.436 24.372C111.431 24.3403 111.426 24.303 111.426 24.2659C111.42 24.2236 111.42 24.1812 111.42 24.1335C111.399 24.1812 111.378 24.2235 111.351 24.2659C111.33 24.3082 111.309 24.3455 111.288 24.3774L110.954 24.8598H110.954ZM111.691 25.7025L111.585 25.1514H110.758L110.387 25.7025H110.032L111.569 23.4817L112.046 25.7025H111.691ZM108.892 25.7025L109.401 23.5663H110.562L110.493 23.8631H109.671L109.544 24.3932H110.365L110.291 24.6954H109.47L109.231 25.6971H108.892V25.7025H108.892ZM107.89 24.4728H107.954C108.134 24.4728 108.256 24.4515 108.325 24.409C108.394 24.3666 108.442 24.2924 108.468 24.181C108.494 24.0643 108.484 23.9796 108.431 23.9319C108.378 23.8842 108.266 23.8575 108.097 23.8575H108.033L107.89 24.4726L107.89 24.4728ZM107.805 24.7431L107.577 25.6971H107.259L107.768 23.5611H108.24C108.378 23.5611 108.484 23.5717 108.553 23.5877C108.627 23.6037 108.685 23.6354 108.728 23.6777C108.781 23.7308 108.812 23.7943 108.828 23.8791C108.844 23.9589 108.839 24.0489 108.818 24.1495C108.775 24.3192 108.706 24.4571 108.6 24.5523C108.494 24.6477 108.362 24.706 108.203 24.7273L108.685 25.6969H108.303L107.842 24.7429H107.805L107.805 24.7431ZM105.712 25.7025L106.221 23.5663H107.387L107.318 23.8631H106.496L106.369 24.3984H107.191L107.117 24.7006H106.295L106.131 25.3895H106.952L106.878 25.7023H105.712L105.712 25.7025ZM105.346 23.8579L104.906 25.6971H104.567L105.007 23.8579H104.456L104.525 23.5611H105.966L105.898 23.8579H105.346H105.346ZM101.896 25.7025L102.426 23.4817L103.433 24.7856C103.459 24.8227 103.486 24.8599 103.512 24.9022C103.539 24.9445 103.565 24.9924 103.597 25.0452L103.952 23.5663H104.265L103.735 25.7821L102.706 24.4515C102.68 24.4144 102.653 24.3774 102.627 24.3401C102.601 24.2978 102.579 24.2605 102.563 24.2128L102.208 25.6969H101.896V25.7023L101.896 25.7025ZM101.069 25.7025L101.577 23.5663H101.917L101.408 25.7025H101.069ZM98.572 25.2732L98.8741 25.146C98.8793 25.2414 98.9057 25.3155 98.9642 25.3632C99.0226 25.4109 99.1019 25.4376 99.208 25.4376C99.3086 25.4376 99.3935 25.4109 99.4677 25.3528C99.5418 25.2945 99.5897 25.2203 99.6108 25.1249C99.6426 24.9976 99.5685 24.8862 99.3883 24.791C99.3618 24.775 99.346 24.7644 99.3298 24.7591C99.1284 24.6425 99.0013 24.5419 98.9482 24.4465C98.8953 24.3511 98.8845 24.2397 98.9165 24.1074C98.9588 23.9324 99.049 23.7945 99.1919 23.6833C99.3352 23.5773 99.4942 23.5189 99.6851 23.5189C99.8388 23.5189 99.9605 23.5508 100.051 23.6089C100.141 23.6674 100.189 23.7574 100.204 23.8689L99.9078 24.0067C99.8811 23.9378 99.8493 23.8901 99.807 23.8582C99.7647 23.8266 99.7116 23.8105 99.6479 23.8105C99.5577 23.8105 99.4783 23.837 99.4148 23.8847C99.351 23.9324 99.3088 23.9961 99.2875 24.0809C99.2558 24.2082 99.346 24.3298 99.5525 24.4413C99.5685 24.4519 99.5789 24.4573 99.5897 24.4623C99.7699 24.5577 99.8918 24.6533 99.9447 24.7487C99.9978 24.8439 100.008 24.9553 99.9767 25.0984C99.9288 25.2999 99.8282 25.4588 99.6743 25.5808C99.5208 25.6973 99.3404 25.7612 99.1284 25.7612C98.9536 25.7612 98.8157 25.7185 98.7203 25.6338C98.6143 25.549 98.5666 25.4269 98.572 25.2734V25.2732ZM98.2169 23.8579L97.777 25.6971H97.4378L97.8778 23.8579H97.3266L97.3952 23.5611H98.837L98.768 23.8579H98.2169ZM94.7663 25.7025L95.2962 23.4817L96.3035 24.7856C96.3299 24.8227 96.3566 24.8599 96.383 24.9022C96.4093 24.9445 96.436 24.9924 96.4678 25.0452L96.823 23.5663H97.1356L96.6057 25.7821L95.5774 24.4515C95.5507 24.4144 95.5244 24.3774 95.4978 24.3401C95.4713 24.2978 95.4501 24.2605 95.4343 24.2128L95.0791 25.6969H94.7665V25.7023L94.7663 25.7025ZM93.2185 25.7025L93.7273 23.5663H94.8881L94.8192 23.8631H93.9977L93.8704 24.3984H94.6919L94.6178 24.7006H93.7963L93.6319 25.3895H94.4536L94.3793 25.7023H93.2185V25.7025ZM92.6567 24.6477C92.6567 24.6319 92.6619 24.584 92.6725 24.5098C92.6779 24.4463 92.6831 24.3986 92.6885 24.3561C92.6673 24.404 92.6461 24.4515 92.6196 24.5044C92.5931 24.5523 92.5613 24.6052 92.5242 24.6529L91.7079 25.7925L91.4429 24.6319C91.4323 24.5842 91.4217 24.5365 91.4163 24.494C91.4111 24.4517 91.4057 24.404 91.4057 24.3615C91.3951 24.404 91.3792 24.4515 91.3634 24.5044C91.3474 24.5523 91.3263 24.6052 91.2997 24.6583L90.8227 25.7079H90.51L91.5329 23.4817L91.8245 24.8279C91.8298 24.8491 91.8352 24.8862 91.8406 24.9339C91.8458 24.9818 91.8564 25.0453 91.867 25.1195C91.9041 25.056 91.9518 24.9818 92.0155 24.8862C92.0314 24.8599 92.0472 24.8439 92.0526 24.8279L92.9749 23.4817L92.9431 25.7079H92.6304L92.657 24.6477H92.6567ZM89.4287 25.7025L89.662 24.7273L89.238 23.5717H89.5929L89.8579 24.298C89.8633 24.319 89.8685 24.3403 89.8791 24.372C89.8897 24.404 89.8951 24.4357 89.9056 24.4674C89.9268 24.4357 89.948 24.4038 89.9693 24.372C89.9905 24.3403 90.0118 24.3136 90.0328 24.2872L90.6531 23.5717H90.9922L90.0011 24.7219L89.7679 25.6969H89.4286V25.7023L89.4287 25.7025ZM87.8545 24.8598H88.4321L88.3367 24.372C88.3313 24.3403 88.3261 24.303 88.3261 24.2659C88.3207 24.2236 88.3207 24.1812 88.3207 24.1335C88.2994 24.1812 88.2782 24.2235 88.2517 24.2659C88.2305 24.3082 88.2094 24.3455 88.188 24.3774L87.8541 24.8598H87.8545ZM88.5858 25.7025L88.4798 25.1514H87.6529L87.2819 25.7025H86.9268L88.464 23.4817L88.941 25.7025H88.5858ZM86.4604 24.4569H86.5452C86.7307 24.4569 86.8632 24.4357 86.9374 24.3932C87.0115 24.3509 87.0592 24.2767 87.0859 24.1705C87.1122 24.0593 87.0963 23.9745 87.0434 23.9322C86.9851 23.8845 86.8684 23.8633 86.6937 23.8633H86.6089L86.4604 24.4571V24.4569ZM86.3702 24.7431L86.1423 25.7025H85.8243L86.3331 23.5663H86.8472C87.0009 23.5663 87.1069 23.5769 87.1759 23.5927C87.2448 23.6086 87.2979 23.6352 87.3402 23.6775C87.3931 23.7252 87.4302 23.7942 87.4462 23.8789C87.4621 23.9639 87.4569 24.0539 87.4356 24.1545C87.4092 24.2553 87.3721 24.3507 87.3138 24.4355C87.2554 24.5203 87.1865 24.5892 87.1123 24.6369C87.0488 24.674 86.9799 24.7057 86.9057 24.7217C86.8315 24.7375 86.7149 24.7483 86.5664 24.7483H86.3704V24.7429L86.3702 24.7431ZM83.2058 25.3845H83.492C83.6457 25.3845 83.7676 25.3738 83.8525 25.3528C83.9373 25.3317 84.0115 25.2945 84.0804 25.2468C84.1758 25.1778 84.2554 25.093 84.3189 24.987C84.3826 24.8862 84.4303 24.7644 84.462 24.6267C84.4937 24.4888 84.5043 24.3721 84.4885 24.2717C84.4726 24.1707 84.4356 24.0807 84.3718 24.0118C84.3241 23.9589 84.2658 23.927 84.1864 23.9058C84.1069 23.8845 83.985 23.8741 83.8101 23.8741H83.5663L83.2058 25.3846V25.3845ZM82.7923 25.7025L83.3014 23.5663H83.7571C84.054 23.5663 84.2608 23.5821 84.3718 23.614C84.4833 23.6458 84.5785 23.6935 84.6528 23.7677C84.7482 23.8631 84.8119 23.9851 84.8384 24.1281C84.8649 24.2766 84.8542 24.4461 84.8119 24.6317C84.7641 24.8225 84.6953 24.9867 84.5999 25.135C84.5045 25.2835 84.3826 25.4001 84.2395 25.4955C84.1335 25.5699 84.0169 25.6176 83.8896 25.6492C83.7678 25.6811 83.5822 25.6969 83.3383 25.6969H82.7923V25.7023V25.7025ZM81.2393 25.7025L81.7482 23.5663H82.909L82.84 23.8631H82.0183L81.8911 24.3984H82.7128L82.6386 24.7006H81.8169L81.6526 25.3895H82.4743L82.4001 25.7023H81.2393V25.7025ZM80.4176 25.7025L80.9265 23.5663H81.2656L80.7567 25.7025H80.4174H80.4176ZM78.8804 25.7025L79.3893 23.5663H80.5501L80.4811 23.8631H79.6596L79.5324 24.3932H80.3539L80.2797 24.6954H79.458L79.2195 25.6971H78.8802V25.7025H78.8804ZM78.0587 25.7025L78.5676 23.5663H78.9067L78.3978 25.7025H78.0585H78.0587ZM75.716 25.7025L76.2459 23.4817L77.253 24.7856C77.2795 24.8227 77.306 24.8599 77.3326 24.9022C77.3591 24.9445 77.3855 24.9924 77.4174 25.0452L77.7725 23.5663H78.0852L77.5553 25.7821L76.5269 24.4515C76.5005 24.4144 76.474 24.3774 76.4474 24.3401C76.4209 24.2978 76.3997 24.2605 76.3838 24.2128L76.0287 25.6969H75.716V25.7023V25.7025Z" fill="white"></path><path fill-rule="evenodd" clip-rule="evenodd" d="M108.113 21.7057H105.786L109.019 10.0286H111.346L108.113 21.7057ZM88.7766 20.9742C88.6494 21.4353 88.2253 21.7586 87.7483 21.7586H75.7533C75.4246 21.7586 75.1809 21.6472 75.0218 21.4247C74.8629 21.2019 74.8258 20.9263 74.9212 20.5978L77.8471 10.0604H80.1741L77.5609 19.474H86.8686L89.4817 10.0604H91.8087L88.7768 20.9742H88.7766ZM106.904 10.3943C106.745 10.1717 106.496 10.0604 106.157 10.0604H93.3722L92.7415 12.3502H104.371L103.692 14.7939H94.3901V14.7885H92.0633L90.1338 21.7588H92.4607L93.754 17.0837H104.212C104.541 17.0837 104.848 16.9722 105.134 16.7498C105.42 16.5271 105.611 16.2515 105.701 15.9228L106.995 11.2479C107.095 10.8981 107.064 10.6172 106.905 10.3945L106.904 10.3943Z" fill="white"></path><path fill-rule="evenodd" clip-rule="evenodd" d="M115.364 10.0498L118.306 15.9016L112.12 21.7534L112.856 19.0989L116.239 15.9016L114.629 12.7003L115.364 10.0498Z" fill="#0E8635"></path><path fill-rule="evenodd" clip-rule="evenodd" d="M113.297 10.0498L116.239 15.9016L110.048 21.7534L113.297 10.0498Z" fill="#E97208"></path><path d="M71.6457 0H120.354C121.907 0 123.319 0.635039 124.342 1.6578C125.365 2.68073 126 4.09247 126 5.64587V30.1753C126 31.7285 125.365 33.1403 124.342 34.1632C123.319 35.186 121.907 35.8212 120.354 35.8212H71.6459C70.0927 35.8212 68.6807 35.1862 67.6578 34.1632C66.635 33.1405 66 31.7289 66 30.1753V5.64587C66 4.09229 66.635 2.68055 67.6578 1.6578C68.6806 0.635039 70.0925 0 71.646 0H71.6457ZM120.354 1.94598H71.6457C70.6292 1.94598 69.7044 2.36268 69.0334 3.03371C68.3623 3.70475 67.9456 4.62959 67.9456 5.64605V30.1755C67.9456 31.1918 68.3623 32.1166 69.0334 32.7877C69.7046 33.4589 70.6294 33.8756 71.6457 33.8756H120.354C121.37 33.8756 122.295 33.4589 122.966 32.7877C123.637 32.1164 124.054 31.1916 124.054 30.1757V5.64623C124.054 4.63013 123.637 3.70511 122.966 3.03389C122.295 2.36286 121.37 1.94616 120.354 1.94616V1.94598Z" fill="white" fill-opacity="0.12"></path></g><g clip-path="url(#clip1_1_1683)"><path d="M137.646 0H186.354C187.907 0 189.319 0.635041 190.342 1.6578C191.365 2.68074 192 4.09248 192 5.64589V30.1754C192 31.7286 191.365 33.1404 190.342 34.1633C189.319 35.1861 187.907 35.8213 186.354 35.8213H137.646C136.093 35.8213 134.681 35.1863 133.658 34.1633C132.635 33.1406 132 31.729 132 30.1754V5.64589C132 4.0923 132.635 2.68056 133.658 1.6578C134.681 0.635041 136.092 0 137.646 0H137.646ZM186.354 1.94598H137.646C136.629 1.94598 135.704 2.36268 135.033 3.03372C134.362 3.70476 133.946 4.6296 133.946 5.64607V30.1756C133.946 31.1919 134.362 32.1167 135.033 32.7878C135.705 33.459 136.629 33.8757 137.646 33.8757H186.354C187.37 33.8757 188.295 33.459 188.966 32.7878C189.637 32.1165 190.054 31.1917 190.054 30.1758V5.64625C190.054 4.63014 189.637 3.70512 188.966 3.0339C188.295 2.36286 187.37 1.94616 186.354 1.94616V1.94598Z" fill="white" fill-opacity="0.12"></path><path fill-rule="evenodd" clip-rule="evenodd" d="M169.622 14.4047C170.414 14.4047 171.055 13.7634 171.055 12.9728C171.055 12.1818 170.414 11.54 169.622 11.54C168.832 11.54 168.191 12.1816 168.191 12.9728C168.191 13.7634 168.832 14.4047 169.622 14.4047ZM158.649 15.1778C158.584 15.3403 158.119 16.6546 156.994 18.017V12.1919L153.995 12.7846V23.343H156.994V20.0793C157.862 21.3818 158.291 23.343 158.291 23.343H161.883C161.527 21.8661 159.973 19.1426 159.973 19.1426C161.368 17.3742 161.981 15.4901 162.078 15.1778H158.649ZM166.532 15.0676C163.846 15.1539 162.483 16.3589 162.483 18.7542V23.3431H165.413V19.601C165.413 18.1665 165.601 17.5517 167.303 17.4931V15.1097C167.017 15.0489 166.532 15.0676 166.532 15.0676ZM148.966 16.3405C148.599 16.3164 147.748 16.2615 147.748 15.496C147.748 14.5723 148.972 14.5723 149.432 14.5723C150.239 14.5723 151.285 14.8108 152.031 15.0341C152.031 15.0341 152.448 15.181 152.802 15.3314L152.835 15.3403V12.8102L152.79 12.7969C151.909 12.4885 150.884 12.1919 148.984 12.1919C145.709 12.1919 144.548 14.1001 144.548 15.735C144.548 16.6774 144.952 18.8954 148.703 19.1511C149.021 19.1706 149.865 19.2191 149.865 20.0104C149.865 20.6636 149.174 21.0487 148.012 21.0487C146.739 21.0487 145.503 20.7238 144.753 20.4159V23.0214C145.876 23.3158 147.142 23.4631 148.627 23.4631C151.829 23.4631 153.264 21.6576 153.264 19.8681C153.264 17.8391 151.659 16.5209 148.966 16.3403L148.966 16.3405ZM168.17 23.3431H171.076V15.187H168.17V23.3431ZM176.549 12.712V23.3431H179.456V12.1921L176.549 12.712ZM172.308 12.712L175.212 12.1921V23.3431H172.308V12.712Z" fill="white"></path></g><g clip-path="url(#clip2_1_1683)"><path d="M203.646 0H252.354C253.907 0 255.319 0.635039 256.342 1.6578C257.365 2.68073 258 4.09247 258 5.64587V30.1753C258 31.7285 257.365 33.1403 256.342 34.1632C255.319 35.1862 253.907 35.8212 252.354 35.8212H203.646C202.093 35.8212 200.681 35.1862 199.658 34.1632C198.635 33.1405 198 31.7289 198 30.1753V5.64587C198 4.09229 198.635 2.68055 199.658 1.6578C200.681 0.635039 202.092 0 203.646 0H203.646ZM252.354 1.94598H203.646C202.629 1.94598 201.704 2.36268 201.033 3.03371C200.362 3.70475 199.946 4.62959 199.946 5.64605V30.1755C199.946 31.1918 200.362 32.1166 201.033 32.7877C201.705 33.4589 202.63 33.8756 203.646 33.8756H252.354C253.37 33.8756 254.295 33.4589 254.966 32.7877C255.637 32.1164 256.054 31.1916 256.054 30.1757V5.64623C256.054 4.63013 255.637 3.70511 254.966 3.03389C254.295 2.36286 253.37 1.94616 252.354 1.94616V1.94598Z" fill="white" fill-opacity="0.12"></path><path fill-rule="evenodd" clip-rule="evenodd" d="M238.792 25.1952V23.8445C238.915 23.8753 239.193 23.8753 239.332 23.8753C240.104 23.8753 240.52 23.5513 240.775 22.7178C240.775 22.7024 240.922 22.2239 240.922 22.2162L237.989 14.089H239.795L241.848 20.6958H241.879L243.932 14.089H245.692L242.65 22.6328C241.956 24.6009 241.154 25.2339 239.471 25.2339C239.332 25.2339 238.915 25.2185 238.792 25.1954L238.792 25.1952ZM216.992 12.158C217.409 11.6368 217.691 10.9372 217.617 10.2222C217.007 10.2524 216.263 10.6244 215.832 11.146C215.445 11.5927 215.102 12.3216 215.192 13.0067C215.876 13.066 216.56 12.6644 216.992 12.158H216.992ZM217.609 13.1404C216.615 13.081 215.769 13.7046 215.294 13.7046C214.819 13.7046 214.092 13.1701 213.306 13.1845C212.282 13.1995 211.333 13.7783 210.813 14.6987C209.745 16.5401 210.531 19.2713 211.57 20.7711C212.075 21.513 212.683 22.3299 213.484 22.3007C214.241 22.2709 214.538 21.8106 215.458 21.8106C216.377 21.8106 216.645 22.3007 217.446 22.2859C218.277 22.2712 218.796 21.5436 219.301 20.8009C219.879 19.9551 220.116 19.1385 220.131 19.0939C220.116 19.079 218.529 18.4701 218.514 16.6438C218.499 15.1149 219.761 14.3878 219.82 14.3426C219.108 13.2892 217.995 13.1703 217.609 13.1406V13.1404ZM226.266 11.0711C228.427 11.0711 229.932 12.5607 229.932 14.7295C229.932 16.9058 228.396 18.4033 226.212 18.4033H223.819V22.2083H222.091V11.0711H226.266ZM223.819 16.9522H225.803C227.308 16.9522 228.165 16.142 228.165 14.7372C228.165 13.3325 227.308 12.5301 225.811 12.5301H223.82V16.9524L223.819 16.9522ZM230.384 19.9006C230.384 18.4803 231.472 17.6083 233.402 17.5L235.624 17.3689V16.7438C235.624 15.8407 235.014 15.3004 233.996 15.3004C233.031 15.3004 232.429 15.7635 232.282 16.4889H230.708C230.801 15.0224 232.051 13.942 234.057 13.942C236.025 13.942 237.283 14.9839 237.283 16.6124V22.2081H235.686V20.8728H235.647C235.177 21.7758 234.15 22.3469 233.085 22.3469C231.495 22.3469 230.383 21.359 230.383 19.9004L230.384 19.9006ZM235.624 19.1672V18.5268L233.625 18.6502C232.63 18.7196 232.066 19.1595 232.066 19.8542C232.066 20.5642 232.653 21.0273 233.548 21.0273C234.713 21.0273 235.624 20.2246 235.624 19.1672Z" fill="white"></path></g><defs><clipPath id="clip0_1_1683"><rect width="60" height="35.8212" fill="white" transform="translate(66)"></rect></clipPath><clipPath id="clip1_1_1683"><rect width="60" height="35.8213" fill="white" transform="translate(132)"></rect></clipPath><clipPath id="clip2_1_1683"><rect width="60" height="35.8212" fill="white" transform="translate(198)"></rect></clipPath></defs></svg>